<svg width="23" height="21" viewBox="0 0 23 21" fill="none" xmlns="http://www.w3.org/2000/svg">
<path d="M20.3761 1.94255C17.8068 -0.226503 13.8374 0.0993017 11.3793 2.61201C8.9212 0.0993017 4.95178 -0.230966 2.38255 1.94255C-0.960123 4.76767 -0.471169 9.37356 1.91137 11.8149L9.70797 19.7904C10.1525 20.2456 10.7481 20.5 11.3793 20.5C12.0149 20.5 12.6061 20.2501 13.0506 19.7948L20.8472 11.8193C23.2253 9.37803 23.7232 4.77214 20.3761 1.94255ZM19.327 10.3108L11.5304 18.2863C11.4238 18.3934 11.3349 18.3934 11.2282 18.2863L3.43158 10.3108C1.80914 8.65055 1.4802 5.50854 3.75606 3.58496C5.48518 2.12554 8.15221 2.34423 9.82354 4.05358L11.3793 5.6469L12.9351 4.05358C14.6153 2.3353 17.2823 2.12554 19.0026 3.5805C21.274 5.50408 20.9361 8.66394 19.327 10.3108Z" fill="#222222"/>
</svg>
