<svg width="27" height="21" viewBox="0 0 27 21" fill="none" xmlns="http://www.w3.org/2000/svg">
<path d="M13.6147 0.5C10.0076 0.5 7.11916 2.14286 5.01648 4.09821C2.92719 6.03571 1.52987 8.35714 0.869158 9.95089C0.721837 10.3036 0.721837 10.6964 0.869158 11.0491C1.52987 12.6429 2.92719 14.9643 5.01648 16.9018C7.11916 18.8571 10.0076 20.5 13.6147 20.5C17.2218 20.5 20.1102 18.8571 22.2129 16.9018C24.3022 14.9598 25.6995 12.6429 26.3647 11.0491C26.512 10.6964 26.512 10.3036 26.3647 9.95089C25.6995 8.35714 24.3022 6.03571 22.2129 4.09821C20.1102 2.14286 17.2218 0.5 13.6147 0.5ZM7.18612 10.5C7.18612 8.79504 7.86342 7.1599 9.06901 5.95431C10.2746 4.74872 11.9097 4.07143 13.6147 4.07143C15.3197 4.07143 16.9548 4.74872 18.1604 5.95431C19.366 7.1599 20.0433 8.79504 20.0433 10.5C20.0433 12.205 19.366 13.8401 18.1604 15.0457C16.9548 16.2513 15.3197 16.9286 13.6147 16.9286C11.9097 16.9286 10.2746 16.2513 9.06901 15.0457C7.86342 13.8401 7.18612 12.205 7.18612 10.5ZM13.6147 7.64286C13.6147 9.21875 12.3334 10.5 10.7576 10.5C10.4406 10.5 10.137 10.4464 9.8513 10.3527C9.60576 10.2723 9.32005 10.4241 9.32898 10.683C9.34237 10.9911 9.38701 11.2991 9.47184 11.6071C10.0834 13.8929 12.4361 15.25 14.7218 14.6384C17.0075 14.0268 18.3647 11.6741 17.7531 9.38839C17.2576 7.53571 15.6192 6.29018 13.7977 6.21429C13.5388 6.20536 13.387 6.48661 13.4674 6.73661C13.5611 7.02232 13.6147 7.32589 13.6147 7.64286Z" fill="#222222"/>
</svg>
