<svg width="192" height="75" viewBox="0 0 192 75" fill="none" xmlns="http://www.w3.org/2000/svg">
<path d="M57.4336 8.25527L53.2191 6.426C52.3349 8.08872 50.5805 9.22126 48.5612 9.22126C45.652 9.22126 43.2924 6.87291 43.2924 3.97771C43.2924 3.3698 43.4012 2.78965 43.5936 2.24559L38.6707 0.108199C38.0097 -0.177712 37.2399 0.122078 36.9554 0.782727C35.2065 4.82989 28.6185 18.6119 13.7159 34.9477C13.9864 35.2336 14.1231 35.65 14.0032 36.0969C13.9 36.4855 13.5904 36.8019 13.2027 36.9185C12.7731 37.049 12.3771 36.9407 12.0842 36.7076C8.61166 40.405 4.72074 44.219 0.361245 48.0663C-0.076657 48.4521 -0.124073 49.1183 0.260834 49.5569L4.67612 54.5895C4.95224 54.9059 5.38457 55.0308 5.79179 54.9198C7.04134 54.5839 8.38852 54.4785 9.78311 54.67C14.2932 55.2862 17.855 58.9586 18.3152 63.4666C18.4937 65.2293 18.2065 66.9059 17.5649 68.3965C17.4087 68.7573 17.4701 69.1737 17.7323 69.4707L22.2368 74.606C22.6859 75.1195 23.4836 75.1334 23.9494 74.6338C25.8767 72.5713 30.7522 67.0669 36.4589 58.4923C36.2804 58.2619 36.18 57.9705 36.2106 57.6485C36.233 57.4181 36.3445 57.2015 36.5035 57.035C36.986 56.5298 37.3598 56.5131 37.7001 56.5936C44.8627 45.4903 53.0573 29.7652 58.3289 10.0901C58.5297 9.34062 58.1448 8.56061 57.4336 8.24972V8.25527ZM17.1661 38.584C17.088 39.092 16.6724 39.5056 16.162 39.5833C15.3448 39.7082 14.6502 39.0171 14.7758 38.2037C14.8539 37.6958 15.2694 37.2822 15.7799 37.2044C16.5971 37.0795 17.2916 37.7707 17.1661 38.584ZM20.7864 41.7346C20.6052 42.5368 19.7042 42.9282 18.9874 42.5174C18.5412 42.2592 18.3069 41.7235 18.4184 41.2211C18.5997 40.4188 19.5006 40.0275 20.2175 40.4383C20.6637 40.6964 20.898 41.2322 20.7864 41.7346ZM23.9801 44.7519C23.902 45.2599 23.4864 45.6735 22.976 45.7512C22.1587 45.8761 21.4642 45.185 21.5897 44.3716C21.6678 43.8637 22.0834 43.4501 22.5938 43.3723C23.4111 43.2474 24.1056 43.9386 23.9801 44.7519ZM27.6255 47.822C27.5474 48.33 27.1318 48.7436 26.6214 48.8213C25.8042 48.9462 25.1097 48.255 25.2352 47.4417C25.3133 46.9337 25.7289 46.5201 26.2393 46.4424C27.0565 46.3175 27.751 47.0087 27.6255 47.822ZM31.3435 51.3084C31.2654 51.8164 30.8498 52.23 30.3394 52.3078C29.5222 52.4327 28.8277 51.7415 28.9532 50.9282C29.0313 50.4202 29.4469 50.0066 29.9573 49.9289C30.7745 49.8039 31.469 50.4951 31.3435 51.3084ZM35.3014 54.695C35.2233 55.2029 34.8077 55.6165 34.2973 55.6943C33.48 55.8192 32.7855 55.128 32.911 54.3147C32.9891 53.8067 33.4047 53.3931 33.9151 53.3154C34.7324 53.1905 35.4269 53.8816 35.3014 54.695ZM43.3649 33.346C41.008 37.3488 35.8341 38.6923 31.8121 36.3439C27.7901 33.9984 26.4401 28.8492 28.7998 24.8464C31.1594 20.8437 36.3306 19.5002 40.3526 21.8485C44.3746 24.1941 45.7246 29.3433 43.3649 33.346Z" fill="#FF5301"/>
<path d="M40.8519 29.9234L40.4865 31.6389C40.4139 31.9914 40.5227 32.3551 40.7821 32.6049L41.4878 33.2933C41.6719 33.0573 41.842 32.8075 41.9982 32.5438H42.001C42.6146 31.5029 42.9186 30.3648 42.9437 29.2322L42.0428 29.099C41.4906 29.0157 40.969 29.3766 40.8519 29.9179V29.9234Z" fill="#FF5301"/>
<path d="M31.4913 24.022L31.4858 24.641C31.4802 25.1906 31.6894 25.718 32.0687 26.115L33.441 27.5445C33.8482 27.9692 33.9235 28.6105 33.6251 29.1157L32.9585 30.2454C32.7744 30.5563 32.7855 30.9422 32.9808 31.2447C33.1788 31.5473 33.1872 31.9331 33.0031 32.244L32.3532 33.3488C32.0938 33.7902 32.3281 34.3564 32.8274 34.4841C33.3629 34.6201 33.9319 34.4647 34.3224 34.0705L34.5901 33.8013C34.9918 33.3932 35.5468 33.1656 36.1186 33.1712L36.4254 33.1767C36.9944 33.185 37.5216 32.8852 37.8088 32.3967L37.9483 32.1607C38.1603 31.7999 38.2189 31.3724 38.1129 30.9671L38.0682 30.7923C37.9623 30.387 37.7001 30.04 37.3403 29.829L36.113 29.1129C35.7978 28.9297 35.5329 28.6632 35.3488 28.3468L34.6961 27.217C34.6152 27.0754 34.5873 26.9061 34.6208 26.7479C34.6905 26.4231 34.9862 26.201 35.3209 26.2232L35.5385 26.2371C35.7811 26.2538 36.0098 26.3648 36.1688 26.548L36.7015 27.1504C36.8884 27.3641 37.198 27.4252 37.449 27.3003C37.7001 27.1809 37.8395 26.9089 37.7949 26.6341L37.6805 25.9457C37.5969 25.4405 37.8897 24.9464 38.3778 24.7826L39.1309 24.5244C39.5521 24.3801 39.8394 23.9859 39.8422 23.5446V23.3863C39.7473 23.3225 39.6525 23.2642 39.5521 23.2059C36.9107 21.6653 33.6585 22.0845 31.4941 24.022H31.4913Z" fill="#FF5301"/>
<path d="M82.4387 19.509C81.6404 19.509 80.842 19.2883 80.0437 18.8469C79.2897 18.4055 78.691 17.8096 78.2474 17.0592C77.8483 16.3089 77.6487 15.4923 77.6487 14.6095C77.6487 13.2412 78.0922 12.0935 78.9793 11.1666C79.9107 10.2397 81.0638 9.77619 82.4387 9.77619C83.858 9.77619 85.0333 10.2397 85.9647 11.1666C86.9404 12.0935 87.4283 13.2412 87.4283 14.6095C87.4283 15.9778 86.9404 17.1475 85.9647 18.1186C85.0333 19.0455 83.858 19.509 82.4387 19.509ZM86.8961 24.0113V56.8512C86.8961 58.8816 86.6078 60.6251 86.0312 62.0818C85.499 63.5825 84.4789 64.8846 82.9709 65.9881C81.5073 67.0916 79.3563 68.0848 76.5177 68.9676L73.1248 62.4128C74.7215 61.839 75.8746 61.199 76.5842 60.4927C77.2939 59.8306 77.7374 59.0361 77.9148 58.1092C78.0922 57.1823 78.1809 56.0788 78.1809 54.7987V24.0113H86.8961Z" fill="#FF5301"/>
<path d="M116.151 24.0113V46.2577C115.442 46.7873 114.621 47.3391 113.69 47.9129C112.803 48.4867 111.827 48.9723 110.763 49.3695C109.742 49.7668 108.656 49.9654 107.503 49.9654C106.083 49.9654 104.952 49.4357 104.11 48.3764C103.267 47.317 102.846 45.7721 102.846 43.7417V24.0113H94.197V44.139C94.197 46.6108 94.5075 48.8398 95.1284 50.8261C95.7493 52.7683 96.8582 54.3132 98.4548 55.4608C100.051 56.6084 102.313 57.1823 105.241 57.1823C106.394 57.1823 107.658 56.9836 109.033 56.5864C110.452 56.2332 111.893 55.7477 113.357 55.1297C114.865 54.4677 116.307 53.6511 117.681 52.68L119.079 56.1229H124.8V24.0113H116.151Z" fill="#FF5301"/>
<path d="M147.977 24.1437H142.123V14.9405L133.541 16.4634V24.1437H129.216L129.15 30.6322H133.541V45.8604C133.541 48.3322 134.073 50.4289 135.137 52.1503C136.202 53.8718 137.665 55.196 139.528 56.1229C141.435 57.0057 143.719 57.4471 146.38 57.4471C147.09 57.4471 147.866 57.3367 148.709 57.116C149.552 56.9395 150.35 56.6967 151.104 56.3877C151.858 56.1229 152.457 55.8139 152.9 55.4608L150.372 49.2371C149.751 49.5019 149.152 49.7006 148.576 49.833C147.999 49.9654 147.423 50.0316 146.846 50.0316C145.294 50.0316 144.119 49.5019 143.32 48.4426C142.522 47.3832 142.123 46.0149 142.123 44.3376V30.6322H150.638L147.977 24.1437Z" fill="#FF5301"/>
<path d="M173.315 24.1437H167.461V14.9405L158.878 16.4634V24.1437H154.554L154.488 30.6322H158.878V45.8604C158.878 48.3322 159.411 50.4289 160.475 52.1503C161.54 53.8718 163.003 55.196 164.866 56.1229C166.773 57.0057 169.057 57.4471 171.718 57.4471C172.428 57.4471 173.204 57.3367 174.047 57.116C174.889 56.9395 175.688 56.6967 176.442 56.3877C177.196 56.1229 177.795 55.8139 178.238 55.4608L175.71 49.2371C175.089 49.5019 174.49 49.7006 173.914 49.833C173.337 49.9654 172.761 50.0316 172.184 50.0316C170.632 50.0316 169.456 49.5019 168.658 48.4426C167.86 47.3832 167.461 46.0149 167.461 44.3376V30.6322H175.976L173.315 24.1437Z" fill="#FF5301"/>
<path d="M191.601 56.1229V24.0113H182.886V56.1229H191.601ZM187.21 19.509C188.541 19.509 189.672 19.0455 190.603 18.1186C191.534 17.1475 192 15.9778 192 14.6095C192 13.2412 191.512 12.0935 190.536 11.1666C189.605 10.2397 188.474 9.77619 187.143 9.77619C185.813 9.77619 184.682 10.2397 183.751 11.1666C182.819 12.0935 182.353 13.2412 182.353 14.6095C182.353 15.9778 182.819 17.1475 183.751 18.1186C184.682 19.0455 185.835 19.509 187.21 19.509Z" fill="#FF5301"/>
</svg>
