<svg width="30" height="30" viewBox="0 0 30 30" fill="none" xmlns="http://www.w3.org/2000/svg">
<path d="M6.71658 30H0.495597V9.97098H6.71658V30ZM3.60274 7.23884C1.6139 7.23884 6.10352e-05 5.59152 6.10352e-05 3.60268C6.10352e-05 2.64719 0.379628 1.73083 1.05526 1.0552C1.73089 0.379567 2.64725 0 3.60274 0C4.55823 0 5.47458 0.379567 6.15022 1.0552C6.82585 1.73083 7.20542 2.64719 7.20542 3.60268C7.20542 5.59152 5.59158 7.23884 3.60274 7.23884ZM29.9934 30H23.7858V20.25C23.7858 17.9263 23.7389 14.9464 20.5514 14.9464C17.317 14.9464 16.8215 17.471 16.8215 20.0826V30H10.6072V9.97098H16.5737V12.7031H16.6608C17.4911 11.1295 19.5202 9.46875 22.5469 9.46875C28.8416 9.46875 30.0001 13.6138 30.0001 18.9978V30H29.9934Z" fill="#222222"/>
</svg>
