<svg width="31" height="30" viewBox="0 0 31 30" fill="none" xmlns="http://www.w3.org/2000/svg">
<path d="M15.0982 7.30838C10.8416 7.30838 7.40829 10.7425 7.40829 15C7.40829 19.2575 10.8416 22.6916 15.0982 22.6916C19.3547 22.6916 22.7881 19.2575 22.7881 15C22.7881 10.7425 19.3547 7.30838 15.0982 7.30838ZM15.0982 20.0006C12.3475 20.0006 10.0988 17.758 10.0988 15C10.0988 12.242 12.3408 9.99944 15.0982 9.99944C17.8556 9.99944 20.0976 12.242 20.0976 15C20.0976 17.758 17.8489 20.0006 15.0982 20.0006ZM24.8963 6.99375C24.8963 7.99119 24.0932 8.7878 23.1027 8.7878C22.1054 8.7878 21.309 7.98449 21.309 6.99375C21.309 6.00301 22.1121 5.19971 23.1027 5.19971C24.0932 5.19971 24.8963 6.00301 24.8963 6.99375ZM29.9894 8.81457C29.8757 6.41136 29.3269 4.28261 27.5667 2.52873C25.8132 0.774852 23.6849 0.225929 21.2822 0.105433C18.8059 -0.0351445 11.3838 -0.0351445 8.90745 0.105433C6.51147 0.219235 4.38319 0.768158 2.62301 2.52203C0.862835 4.27591 0.320727 6.40466 0.200259 8.80788C0.059712 11.2847 0.059712 18.7086 0.200259 21.1854C0.314034 23.5886 0.862835 25.7174 2.62301 27.4713C4.38319 29.2251 6.50478 29.7741 8.90745 29.8946C11.3838 30.0351 18.8059 30.0351 21.2822 29.8946C23.6849 29.7808 25.8132 29.2318 27.5667 27.4713C29.3202 25.7174 29.869 23.5886 29.9894 21.1854C30.13 18.7086 30.13 11.2914 29.9894 8.81457ZM26.7903 23.843C26.2683 25.1551 25.2577 26.1659 23.9392 26.6947C21.9649 27.478 17.28 27.2972 15.0982 27.2972C12.9164 27.2972 8.2248 27.4713 6.25715 26.6947C4.94538 26.1726 3.93478 25.1618 3.40606 23.843C2.62301 21.8682 2.80372 17.1823 2.80372 15C2.80372 12.8177 2.62971 8.12507 3.40606 6.15698C3.92809 4.84492 4.93869 3.8341 6.25715 3.30525C8.23149 2.52203 12.9164 2.70278 15.0982 2.70278C17.28 2.70278 21.9716 2.52873 23.9392 3.30525C25.251 3.8274 26.2616 4.83822 26.7903 6.15698C27.5734 8.13176 27.3927 12.8177 27.3927 15C27.3927 17.1823 27.5734 21.8749 26.7903 23.843Z" fill="#222222"/>
</svg>
