<svg width="28" height="30" viewBox="0 0 28 30" fill="none" xmlns="http://www.w3.org/2000/svg">
<path d="M27.0949 12.3C24.5141 12.3056 21.9969 11.5 19.8989 9.99708V20.4747C19.8983 22.4152 19.3052 24.3092 18.199 25.9035C17.0927 27.4978 15.5261 28.7164 13.7086 29.3962C11.891 30.076 9.90926 30.1846 8.02831 29.7076C6.14735 29.2306 4.45688 28.1906 3.18298 26.7268C1.90908 25.263 1.11248 23.4452 0.899733 21.5164C0.686982 19.5876 1.06822 17.6398 1.99245 15.9335C2.91669 14.2273 4.33986 12.8439 6.07163 11.9684C7.8034 11.0928 9.7612 10.767 11.6832 11.0343V16.3024C10.8044 16.0257 9.86059 16.0338 8.98662 16.3255C8.11266 16.6172 7.3532 17.1776 6.81668 17.9266C6.28016 18.6756 5.99402 19.575 5.99912 20.4963C6.00421 21.4177 6.30028 22.3139 6.84504 23.0569C7.3898 23.8 8.15541 24.3519 9.03255 24.6339C9.90968 24.9159 10.8535 24.9136 11.7292 24.6272C12.6049 24.3409 13.3678 23.7851 13.9089 23.0394C14.45 22.2937 14.7416 21.396 14.7421 20.4747V0H19.8989C19.8959 0.436135 19.9332 0.871611 20.0102 1.30091C20.1895 2.25784 20.5621 3.16815 21.1052 3.97621C21.6483 4.78426 22.3504 5.47309 23.1687 6.00059C24.3335 6.76991 25.6989 7.17953 27.0949 7.17844V12.3Z" fill="#222222"/>
</svg>
