<svg width="30" height="31" viewBox="0 0 30 31" fill="none" xmlns="http://www.w3.org/2000/svg">
<path d="M25.5067 4.85937C22.7009 2.04687 18.9643 0.5 14.9933 0.5C6.79687 0.5 0.127232 7.16964 0.127232 15.3661C0.127232 17.9844 0.810268 20.5424 2.10938 22.7991L0 30.5L7.8817 28.4308C10.0513 29.6161 12.4955 30.2388 14.9866 30.2388H14.9933C23.183 30.2388 30 23.5692 30 15.3728C30 11.4018 28.3125 7.67187 25.5067 4.85937ZM14.9933 27.7344C12.7701 27.7344 10.5937 27.1384 8.69866 26.0134L8.25 25.7455L3.57589 26.971L4.82143 22.4107L4.52679 21.942C3.28795 19.9732 2.63839 17.7031 2.63839 15.3661C2.63839 8.5558 8.18303 3.01116 15 3.01116C18.3013 3.01116 21.4018 4.29687 23.7321 6.63393C26.0625 8.97098 27.4955 12.0714 27.4888 15.3728C27.4888 22.1897 21.8036 27.7344 14.9933 27.7344ZM21.7701 18.4799C21.4018 18.2924 19.5737 17.3951 19.2321 17.2746C18.8906 17.1473 18.6429 17.0871 18.3951 17.4621C18.1473 17.8371 17.4375 18.6674 17.2165 18.9219C17.0022 19.1696 16.7812 19.2031 16.4129 19.0156C14.2299 17.9241 12.7969 17.067 11.3571 14.596C10.9754 13.9397 11.7388 13.9866 12.4487 12.567C12.5692 12.3192 12.5089 12.1049 12.4152 11.9174C12.3214 11.7299 11.5781 9.90179 11.2701 9.15848C10.9688 8.43527 10.6607 8.53571 10.433 8.52232C10.2188 8.50893 9.97098 8.50893 9.72321 8.50893C9.47545 8.50893 9.07366 8.60268 8.73214 8.97098C8.39062 9.34598 7.43304 10.2433 7.43304 12.0714C7.43304 13.8996 8.76562 15.6674 8.94643 15.9152C9.13393 16.1629 11.5647 19.9129 15.2946 21.5268C17.6518 22.5446 18.5759 22.6317 19.7545 22.4576C20.471 22.3504 21.9509 21.5603 22.2589 20.6897C22.567 19.8192 22.567 19.0759 22.4732 18.9219C22.3862 18.7545 22.1384 18.6607 21.7701 18.4799Z" fill="#222222"/>
</svg>
