<svg width="26" height="30" viewBox="0 0 26 30" fill="none" xmlns="http://www.w3.org/2000/svg">
<path d="M19.7782 13.7284C19.9157 13.7846 20.0407 13.8471 20.1719 13.9034C21.9965 14.7844 23.3338 16.1029 24.0336 17.7401C25.0147 20.0208 25.1084 23.7263 22.1403 26.6882C19.8782 28.9502 17.1226 29.9688 13.2296 30H13.2109C8.82428 29.9688 5.45623 28.4941 3.18795 25.6134C1.16962 23.0514 0.132341 19.4834 0.0948486 15.0156V14.9969V14.9844C0.126092 10.5166 1.16338 6.94855 3.18171 4.38659C5.44998 1.50594 8.82428 0.0312435 13.2109 0H13.2296C17.6224 0.0312435 21.0342 1.49969 23.3712 4.36784C24.521 5.78629 25.3708 7.49219 25.9082 9.47303L23.3837 10.1479C22.9401 8.53572 22.2715 7.16101 21.3717 6.06124C19.547 3.8242 16.8101 2.67444 13.2171 2.64945C9.65536 2.68069 6.96217 3.8242 5.20628 6.04874C3.56912 8.12956 2.7193 11.1414 2.68806 14.9969C2.7193 18.8523 3.56912 21.8642 5.20628 23.9513C6.95592 26.1758 9.65536 27.3193 13.2171 27.3506C16.4289 27.3256 18.5535 26.5632 20.3219 24.7948C22.3402 22.7828 22.3027 20.3083 21.6591 18.8023C21.2779 17.915 20.5906 17.1777 19.6658 16.6215C19.4346 18.3024 18.9284 19.6397 18.1223 20.6707C17.0538 22.0329 15.5354 22.7703 13.5795 22.8765C12.1048 22.9577 10.6864 22.6015 9.58662 21.8767C8.28689 21.0144 7.52455 19.7021 7.44332 18.1712C7.2871 15.1531 9.6741 12.9848 13.3921 12.7723C14.7106 12.6974 15.9478 12.7536 17.0913 12.9473C16.9413 12.0225 16.6352 11.2851 16.179 10.7478C15.5541 10.0167 14.5793 9.64174 13.2921 9.63549H13.2484C12.2111 9.63549 10.8114 9.92293 9.9178 11.2789L7.76825 9.80421C8.968 7.98584 10.9113 6.98604 13.2546 6.98604H13.3046C17.2163 7.01104 19.547 9.45428 19.7845 13.7159L19.772 13.7284H19.7782ZM10.0303 18.0275C10.1115 19.5959 11.8049 20.327 13.4421 20.2333C15.0417 20.1458 16.8539 19.5209 17.16 15.6592C16.3352 15.478 15.4229 15.3843 14.4481 15.3843C14.1482 15.3843 13.8482 15.3905 13.5483 15.4093C10.8676 15.5593 9.97404 16.859 10.0365 18.0212L10.0303 18.0275Z" fill="#222222"/>
</svg>
